solid ascii
  facet normal 9.230766e-001 0.000000e+000 -3.846162e-001
    outer loop
      vertex   1.727150e+002 1.534016e+002 5.630000e+001
      vertex   1.728400e+002 1.444516e+002 5.660000e+001
      vertex   1.725900e+002 1.444516e+002 5.600000e+001
    endloop
  endfacet
  facet normal 0.000000e+000 -1.000000e+000 0.000000e+000
    outer loop
      vertex   1.728400e+002 1.444516e+002 5.660000e+001
      vertex   1.725900e+002 1.444516e+002 5.660000e+001
      vertex   1.725900e+002 1.444516e+002 5.600000e+001
    endloop
  endfacet
  facet normal 0.000000e+000 -1.000000e+000 0.000000e+000
    outer loop
      vertex   1.725900e+002 1.444516e+002 5.660000e+001
      vertex   6.228999e+001 1.444516e+002 5.900000e+001
      vertex   1.725900e+002 1.444516e+002 5.600000e+001
    endloop
  endfacet
  facet normal 0.000000e+000 -1.000000e+000 0.000000e+000
    outer loop
      vertex   1.725900e+002 1.444516e+002 5.600000e+001
      vertex   6.228999e+001 1.444516e+002 5.660000e+001
      vertex   6.228999e+001 1.444516e+002 5.600000e+001
    endloop
  endfacet
  facet normal 0.000000e+000 -1.000000e+000 0.000000e+000
    outer loop
      vertex   1.725900e+002 1.444516e+002 5.600000e+001
      vertex   6.228999e+001 1.444516e+002 5.900000e+001
      vertex   6.228999e+001 1.444516e+002 5.660000e+001
    endloop
  endfacet
  facet normal 0.000000e+000 -1.000000e+000 0.000000e+000
    outer loop
      vertex   6.228999e+001 1.444516e+002 5.660000e+001
      vertex   6.203999e+001 1.444516e+002 5.660000e+001
      vertex   6.228999e+001 1.444516e+002 5.600000e+001
    endloop
  endfacet
  facet normal 0.000000e+000 1.000000e+000 0.000000e+000
    outer loop
      vertex   1.728400e+002 1.623516e+002 5.660000e+001
      vertex   1.725900e+002 1.623516e+002 5.600000e+001
      vertex   1.725900e+002 1.623516e+002 5.660000e+001
    endloop
  endfacet
  facet normal 0.000000e+000 1.000000e+000 -0.000000e+000
    outer loop
      vertex   1.725900e+002 1.623516e+002 5.660000e+001
      vertex   1.725900e+002 1.623516e+002 5.600000e+001
      vertex   6.228999e+001 1.623516e+002 5.900000e+001
    endloop
  endfacet
  facet normal 0.000000e+000 1.000000e+000 0.000000e+000
    outer loop
      vertex   1.725900e+002 1.623516e+002 5.600000e+001
      vertex   6.228999e+001 1.623516e+002 5.600000e+001
      vertex   6.228999e+001 1.623516e+002 5.660000e+001
    endloop
  endfacet
  facet normal -0.000000e+000 1.000000e+000 0.000000e+000
    outer loop
      vertex   1.725900e+002 1.623516e+002 5.600000e+001
      vertex   6.228999e+001 1.623516e+002 5.660000e+001
      vertex   6.228999e+001 1.623516e+002 5.900000e+001
    endloop
  endfacet
  facet normal 0.000000e+000 1.000000e+000 -0.000000e+000
    outer loop
      vertex   6.228999e+001 1.623516e+002 5.660000e+001
      vertex   6.228999e+001 1.623516e+002 5.600000e+001
      vertex   6.203999e+001 1.623516e+002 5.660000e+001
    endloop
  endfacet
  facet normal 0.000000e+000 -0.000000e+000 -1.000000e+000
    outer loop
      vertex   1.174400e+002 1.534016e+002 5.600000e+001
      vertex   1.725900e+002 1.623516e+002 5.600000e+001
      vertex   1.725900e+002 1.444516e+002 5.600000e+001
    endloop
  endfacet
  facet normal -9.230766e-001 0.000000e+000 -3.846162e-001
    outer loop
      vertex   6.216499e+001 1.534016e+002 5.630000e+001
      vertex   6.203999e+001 1.623516e+002 5.660000e+001
      vertex   6.228999e+001 1.623516e+002 5.600000e+001
    endloop
  endfacet
  facet normal 9.230766e-001 0.000000e+000 -3.846162e-001
    outer loop
      vertex   1.727150e+002 1.534016e+002 5.630000e+001
      vertex   1.725900e+002 1.623516e+002 5.600000e+001
      vertex   1.728400e+002 1.623516e+002 5.660000e+001
    endloop
  endfacet
  facet normal 9.230766e-001 0.000000e+000 -3.846162e-001
    outer loop
      vertex   1.727150e+002 1.534016e+002 5.630000e+001
      vertex   1.725900e+002 1.444516e+002 5.600000e+001
      vertex   1.725900e+002 1.623516e+002 5.600000e+001
    endloop
  endfacet
  facet normal 0.000000e+000 0.000000e+000 -1.000000e+000
    outer loop
      vertex   1.174400e+002 1.534016e+002 5.600000e+001
      vertex   1.725900e+002 1.444516e+002 5.600000e+001
      vertex   6.228999e+001 1.444516e+002 5.600000e+001
    endloop
  endfacet
  facet normal 0.000000e+000 0.000000e+000 -1.000000e+000
    outer loop
      vertex   1.174400e+002 1.534016e+002 5.600000e+001
      vertex   6.228999e+001 1.444516e+002 5.600000e+001
      vertex   6.228999e+001 1.623516e+002 5.600000e+001
    endloop
  endfacet
  facet normal -9.230766e-001 -0.000000e+000 -3.846162e-001
    outer loop
      vertex   6.216499e+001 1.534016e+002 5.630000e+001
      vertex   6.228999e+001 1.623516e+002 5.600000e+001
      vertex   6.228999e+001 1.444516e+002 5.600000e+001
    endloop
  endfacet
  facet normal -9.230766e-001 0.000000e+000 -3.846162e-001
    outer loop
      vertex   6.216499e+001 1.534016e+002 5.630000e+001
      vertex   6.228999e+001 1.444516e+002 5.600000e+001
      vertex   6.203999e+001 1.444516e+002 5.660000e+001
    endloop
  endfacet
  facet normal 0.000000e+000 0.000000e+000 -1.000000e+000
    outer loop
      vertex   1.174400e+002 1.534016e+002 5.600000e+001
      vertex   6.228999e+001 1.623516e+002 5.600000e+001
      vertex   1.725900e+002 1.623516e+002 5.600000e+001
    endloop
  endfacet
  facet normal 9.230766e-001 0.000000e+000 -3.846162e-001
    outer loop
      vertex   1.727150e+002 1.534016e+002 5.630000e+001
      vertex   1.728400e+002 1.623516e+002 5.660000e+001
      vertex   1.728400e+002 1.444516e+002 5.660000e+001
    endloop
  endfacet
  facet normal -9.230766e-001 0.000000e+000 -3.846162e-001
    outer loop
      vertex   6.216499e+001 1.534016e+002 5.630000e+001
      vertex   6.203999e+001 1.444516e+002 5.660000e+001
      vertex   6.203999e+001 1.623516e+002 5.660000e+001
    endloop
  endfacet
  facet normal 0.000000e+000 -0.000000e+000 1.000000e+000
    outer loop
      vertex   1.727150e+002 1.534016e+002 5.660000e+001
      vertex   1.728400e+002 1.444516e+002 5.660000e+001
      vertex   1.728400e+002 1.623516e+002 5.660000e+001
    endloop
  endfacet
  facet normal 0.000000e+000 0.000000e+000 1.000000e+000
    outer loop
      vertex   6.216499e+001 1.534016e+002 5.660000e+001
      vertex   6.203999e+001 1.623516e+002 5.660000e+001
      vertex   6.203999e+001 1.444516e+002 5.660000e+001
    endloop
  endfacet
  facet normal 0.000000e+000 0.000000e+000 1.000000e+000
    outer loop
      vertex   1.727150e+002 1.534016e+002 5.660000e+001
      vertex   1.728400e+002 1.623516e+002 5.660000e+001
      vertex   1.725900e+002 1.623516e+002 5.660000e+001
    endloop
  endfacet
  facet normal 1.000000e+000 0.000000e+000 0.000000e+000
    outer loop
      vertex   1.725900e+002 1.534016e+002 5.780000e+001
      vertex   1.725900e+002 1.444516e+002 5.900000e+001
      vertex   1.725900e+002 1.444516e+002 5.660000e+001
    endloop
  endfacet
  facet normal 1.000000e+000 0.000000e+000 0.000000e+000
    outer loop
      vertex   1.725900e+002 1.534016e+002 5.780000e+001
      vertex   1.725900e+002 1.444516e+002 5.660000e+001
      vertex   1.725900e+002 1.623516e+002 5.660000e+001
    endloop
  endfacet
  facet normal 1.000000e+000 0.000000e+000 -0.000000e+000
    outer loop
      vertex   1.725900e+002 1.534016e+002 5.780000e+001
      vertex   1.725900e+002 1.623516e+002 5.660000e+001
      vertex   1.725900e+002 1.623516e+002 5.900000e+001
    endloop
  endfacet
  facet normal 0.000000e+000 -1.000000e+000 0.000000e+000
    outer loop
      vertex   1.725900e+002 1.444516e+002 5.900000e+001
      vertex   6.228999e+001 1.444516e+002 5.900000e+001
      vertex   1.725900e+002 1.444516e+002 5.660000e+001
    endloop
  endfacet
  facet normal 0.000000e+000 1.000000e+000 -0.000000e+000
    outer loop
      vertex   1.725900e+002 1.623516e+002 5.900000e+001
      vertex   1.725900e+002 1.623516e+002 5.660000e+001
      vertex   6.228999e+001 1.623516e+002 5.900000e+001
    endloop
  endfacet
  facet normal 0.000000e+000 0.000000e+000 1.000000e+000
    outer loop
      vertex   6.216499e+001 1.534016e+002 5.660000e+001
      vertex   6.203999e+001 1.444516e+002 5.660000e+001
      vertex   6.228999e+001 1.444516e+002 5.660000e+001
    endloop
  endfacet
  facet normal 0.000000e+000 0.000000e+000 1.000000e+000
    outer loop
      vertex   6.216499e+001 1.534016e+002 5.660000e+001
      vertex   6.228999e+001 1.623516e+002 5.660000e+001
      vertex   6.203999e+001 1.623516e+002 5.660000e+001
    endloop
  endfacet
  facet normal 0.000000e+000 -0.000000e+000 1.000000e+000
    outer loop
      vertex   6.216499e+001 1.534016e+002 5.660000e+001
      vertex   6.228999e+001 1.444516e+002 5.660000e+001
      vertex   6.228999e+001 1.623516e+002 5.660000e+001
    endloop
  endfacet
  facet normal -1.000000e+000 0.000000e+000 0.000000e+000
    outer loop
      vertex   6.228999e+001 1.534016e+002 5.780000e+001
      vertex   6.228999e+001 1.623516e+002 5.660000e+001
      vertex   6.228999e+001 1.444516e+002 5.660000e+001
    endloop
  endfacet
  facet normal -1.000000e+000 0.000000e+000 -0.000000e+000
    outer loop
      vertex   6.228999e+001 1.534016e+002 5.780000e+001
      vertex   6.228999e+001 1.623516e+002 5.900000e+001
      vertex   6.228999e+001 1.623516e+002 5.660000e+001
    endloop
  endfacet
  facet normal 0.000000e+000 0.000000e+000 1.000000e+000
    outer loop
      vertex   1.727150e+002 1.534016e+002 5.660000e+001
      vertex   1.725900e+002 1.623516e+002 5.660000e+001
      vertex   1.725900e+002 1.444516e+002 5.660000e+001
    endloop
  endfacet
  facet normal 0.000000e+000 0.000000e+000 1.000000e+000
    outer loop
      vertex   1.727150e+002 1.534016e+002 5.660000e+001
      vertex   1.725900e+002 1.444516e+002 5.660000e+001
      vertex   1.728400e+002 1.444516e+002 5.660000e+001
    endloop
  endfacet
  facet normal -1.000000e+000 0.000000e+000 0.000000e+000
    outer loop
      vertex   6.228999e+001 1.534016e+002 5.780000e+001
      vertex   6.228999e+001 1.444516e+002 5.660000e+001
      vertex   6.228999e+001 1.444516e+002 5.900000e+001
    endloop
  endfacet
  facet normal 1.000000e+000 0.000000e+000 0.000000e+000
    outer loop
      vertex   1.725900e+002 1.534016e+002 5.780000e+001
      vertex   1.725900e+002 1.623516e+002 5.900000e+001
      vertex   1.725900e+002 1.444516e+002 5.900000e+001
    endloop
  endfacet
  facet normal -1.000000e+000 0.000000e+000 0.000000e+000
    outer loop
      vertex   6.228999e+001 1.534016e+002 5.780000e+001
      vertex   6.228999e+001 1.444516e+002 5.900000e+001
      vertex   6.228999e+001 1.623516e+002 5.900000e+001
    endloop
  endfacet
  facet normal 0.000000e+000 7.071098e-001 -7.071038e-001
    outer loop
      vertex   1.174400e+002 1.632516e+002 5.990000e+001
      vertex   1.725900e+002 1.623516e+002 5.900000e+001
      vertex   6.228999e+001 1.623516e+002 5.900000e+001
    endloop
  endfacet
  facet normal 7.071064e-001 6.846182e-007 -7.071072e-001
    outer loop
      vertex   1.734900e+002 1.534016e+002 5.990000e+001
      vertex   1.743900e+002 1.426516e+002 6.080000e+001
      vertex   1.725900e+002 1.444516e+002 5.900000e+001
    endloop
  endfacet
  facet normal 1.203121e-007 7.071061e-001 -7.071074e-001
    outer loop
      vertex   1.174400e+002 1.632516e+002 5.990000e+001
      vertex   6.228999e+001 1.623516e+002 5.900000e+001
      vertex   6.048999e+001 1.641516e+002 6.080000e+001
    endloop
  endfacet
  facet normal 7.071064e-001 -6.846187e-007 -7.071072e-001
    outer loop
      vertex   1.734900e+002 1.534016e+002 5.990000e+001
      vertex   1.725900e+002 1.623516e+002 5.900000e+001
      vertex   1.743900e+002 1.641516e+002 6.080000e+001
    endloop
  endfacet
  facet normal 2.406235e-008 -7.071090e-001 -7.071045e-001
    outer loop
      vertex   1.174400e+002 1.435516e+002 5.990000e+001
      vertex   6.048999e+001 1.426516e+002 6.080000e+001
      vertex   6.228999e+001 1.444516e+002 5.900000e+001
    endloop
  endfacet
  facet normal 0.000000e+000 -7.071098e-001 -7.071038e-001
    outer loop
      vertex   1.174400e+002 1.435516e+002 5.990000e+001
      vertex   6.228999e+001 1.444516e+002 5.900000e+001
      vertex   1.725900e+002 1.444516e+002 5.900000e+001
    endloop
  endfacet
  facet normal -2.406235e-008 -7.071090e-001 -7.071045e-001
    outer loop
      vertex   1.174400e+002 1.435516e+002 5.990000e+001
      vertex   1.725900e+002 1.444516e+002 5.900000e+001
      vertex   1.743900e+002 1.426516e+002 6.080000e+001
    endloop
  endfacet
  facet normal -7.071069e-001 -2.738476e-007 -7.071066e-001
    outer loop
      vertex   6.139000e+001 1.534016e+002 5.990000e+001
      vertex   6.048999e+001 1.641516e+002 6.080000e+001
      vertex   6.228999e+001 1.623516e+002 5.900000e+001
    endloop
  endfacet
  facet normal -7.071069e-001 2.738474e-007 -7.071066e-001
    outer loop
      vertex   6.139000e+001 1.534016e+002 5.990000e+001
      vertex   6.228999e+001 1.444516e+002 5.900000e+001
      vertex   6.048999e+001 1.426516e+002 6.080000e+001
    endloop
  endfacet
  facet normal -1.203121e-007 7.071061e-001 -7.071074e-001
    outer loop
      vertex   1.174400e+002 1.632516e+002 5.990000e+001
      vertex   1.743900e+002 1.641516e+002 6.080000e+001
      vertex   1.725900e+002 1.623516e+002 5.900000e+001
    endloop
  endfacet
  facet normal 7.071097e-001 0.000000e+000 -7.071038e-001
    outer loop
      vertex   1.734900e+002 1.534016e+002 5.990000e+001
      vertex   1.725900e+002 1.444516e+002 5.900000e+001
      vertex   1.725900e+002 1.623516e+002 5.900000e+001
    endloop
  endfacet
  facet normal -7.071082e-001 -0.000000e+000 -7.071053e-001
    outer loop
      vertex   6.139000e+001 1.534016e+002 5.990000e+001
      vertex   6.228999e+001 1.623516e+002 5.900000e+001
      vertex   6.228999e+001 1.444516e+002 5.900000e+001
    endloop
  endfacet
  facet normal -7.071053e-001 0.000000e+000 -7.071083e-001
    outer loop
      vertex   6.139000e+001 1.534016e+002 5.990000e+001
      vertex   6.048999e+001 1.426516e+002 6.080000e+001
      vertex   6.048999e+001 1.641516e+002 6.080000e+001
    endloop
  endfacet
  facet normal -0.000000e+000 -7.071083e-001 -7.071053e-001
    outer loop
      vertex   1.174400e+002 1.435516e+002 5.990000e+001
      vertex   1.743900e+002 1.426516e+002 6.080000e+001
      vertex   6.048999e+001 1.426516e+002 6.080000e+001
    endloop
  endfacet
  facet normal 7.071023e-001 0.000000e+000 -7.071113e-001
    outer loop
      vertex   1.734900e+002 1.534016e+002 5.990000e+001
      vertex   1.743900e+002 1.641516e+002 6.080000e+001
      vertex   1.743900e+002 1.426516e+002 6.080000e+001
    endloop
  endfacet
  facet normal 0.000000e+000 7.071023e-001 -7.071112e-001
    outer loop
      vertex   1.174400e+002 1.632516e+002 5.990000e+001
      vertex   6.048999e+001 1.641516e+002 6.080000e+001
      vertex   1.743900e+002 1.641516e+002 6.080000e+001
    endloop
  endfacet
  facet normal -1.000000e+000 0.000000e+000 -0.000000e+000
    outer loop
      vertex   6.048999e+001 1.534016e+002 6.090000e+001
      vertex   6.048999e+001 1.641516e+002 6.100000e+001
      vertex   6.048999e+001 1.641516e+002 6.080000e+001
    endloop
  endfacet
  facet normal 1.000000e+000 0.000000e+000 -0.000000e+000
    outer loop
      vertex   1.743900e+002 1.534016e+002 6.090000e+001
      vertex   1.743900e+002 1.641516e+002 6.080000e+001
      vertex   1.743900e+002 1.641516e+002 6.100000e+001
    endloop
  endfacet
  facet normal -1.000000e+000 0.000000e+000 0.000000e+000
    outer loop
      vertex   6.048999e+001 1.534016e+002 6.090000e+001
      vertex   6.048999e+001 1.641516e+002 6.080000e+001
      vertex   6.048999e+001 1.426516e+002 6.080000e+001
    endloop
  endfacet
  facet normal -1.000000e+000 0.000000e+000 0.000000e+000
    outer loop
      vertex   6.048999e+001 1.534016e+002 6.090000e+001
      vertex   6.048999e+001 1.426516e+002 6.080000e+001
      vertex   6.048999e+001 1.426516e+002 6.100000e+001
    endloop
  endfacet
  facet normal 0.000000e+000 -1.000000e+000 0.000000e+000
    outer loop
      vertex   1.174400e+002 1.426516e+002 6.090000e+001
      vertex   6.048999e+001 1.426516e+002 6.100000e+001
      vertex   6.048999e+001 1.426516e+002 6.080000e+001
    endloop
  endfacet
  facet normal 1.000000e+000 0.000000e+000 0.000000e+000
    outer loop
      vertex   1.743900e+002 1.534016e+002 6.090000e+001
      vertex   1.743900e+002 1.426516e+002 6.100000e+001
      vertex   1.743900e+002 1.426516e+002 6.080000e+001
    endloop
  endfacet
  facet normal 1.000000e+000 0.000000e+000 0.000000e+000
    outer loop
      vertex   1.743900e+002 1.534016e+002 6.090000e+001
      vertex   1.743900e+002 1.426516e+002 6.080000e+001
      vertex   1.743900e+002 1.641516e+002 6.080000e+001
    endloop
  endfacet
  facet normal 0.000000e+000 1.000000e+000 0.000000e+000
    outer loop
      vertex   1.174400e+002 1.641516e+002 6.090000e+001
      vertex   6.048999e+001 1.641516e+002 6.080000e+001
      vertex   6.048999e+001 1.641516e+002 6.100000e+001
    endloop
  endfacet
  facet normal 0.000000e+000 1.000000e+000 0.000000e+000
    outer loop
      vertex   1.174400e+002 1.641516e+002 6.090000e+001
      vertex   1.743900e+002 1.641516e+002 6.080000e+001
      vertex   6.048999e+001 1.641516e+002 6.080000e+001
    endloop
  endfacet
  facet normal 0.000000e+000 1.000000e+000 0.000000e+000
    outer loop
      vertex   1.174400e+002 1.641516e+002 6.090000e+001
      vertex   1.743900e+002 1.641516e+002 6.100000e+001
      vertex   1.743900e+002 1.641516e+002 6.080000e+001
    endloop
  endfacet
  facet normal 0.000000e+000 -1.000000e+000 0.000000e+000
    outer loop
      vertex   1.174400e+002 1.426516e+002 6.090000e+001
      vertex   6.048999e+001 1.426516e+002 6.080000e+001
      vertex   1.743900e+002 1.426516e+002 6.080000e+001
    endloop
  endfacet
  facet normal 0.000000e+000 -1.000000e+000 0.000000e+000
    outer loop
      vertex   1.174400e+002 1.426516e+002 6.090000e+001
      vertex   1.743900e+002 1.426516e+002 6.080000e+001
      vertex   1.743900e+002 1.426516e+002 6.100000e+001
    endloop
  endfacet
  facet normal -0.000000e+000 1.000000e+000 0.000000e+000
    outer loop
      vertex   1.174400e+002 1.641516e+002 6.090000e+001
      vertex   6.048999e+001 1.641516e+002 6.100000e+001
      vertex   1.743900e+002 1.641516e+002 6.100000e+001
    endloop
  endfacet
  facet normal -1.000000e+000 0.000000e+000 0.000000e+000
    outer loop
      vertex   6.048999e+001 1.534016e+002 6.090000e+001
      vertex   6.048999e+001 1.426516e+002 6.100000e+001
      vertex   6.048999e+001 1.641516e+002 6.100000e+001
    endloop
  endfacet
  facet normal -0.000000e+000 -1.000000e+000 0.000000e+000
    outer loop
      vertex   1.174400e+002 1.426516e+002 6.090000e+001
      vertex   1.743900e+002 1.426516e+002 6.100000e+001
      vertex   6.048999e+001 1.426516e+002 6.100000e+001
    endloop
  endfacet
  facet normal 1.000000e+000 0.000000e+000 0.000000e+000
    outer loop
      vertex   1.743900e+002 1.534016e+002 6.090000e+001
      vertex   1.743900e+002 1.641516e+002 6.100000e+001
      vertex   1.743900e+002 1.426516e+002 6.100000e+001
    endloop
  endfacet
  facet normal 0.000000e+000 -0.000000e+000 1.000000e+000
    outer loop
      vertex   1.174400e+002 1.534016e+002 6.100000e+001
      vertex   1.743900e+002 1.426516e+002 6.100000e+001
      vertex   1.743900e+002 1.641516e+002 6.100000e+001
    endloop
  endfacet
  facet normal 0.000000e+000 0.000000e+000 1.000000e+000
    outer loop
      vertex   1.174400e+002 1.534016e+002 6.100000e+001
      vertex   6.048999e+001 1.426516e+002 6.100000e+001
      vertex   1.743900e+002 1.426516e+002 6.100000e+001
    endloop
  endfacet
  facet normal 0.000000e+000 0.000000e+000 1.000000e+000
    outer loop
      vertex   1.174400e+002 1.534016e+002 6.100000e+001
      vertex   1.743900e+002 1.641516e+002 6.100000e+001
      vertex   6.048999e+001 1.641516e+002 6.100000e+001
    endloop
  endfacet
  facet normal 0.000000e+000 0.000000e+000 1.000000e+000
    outer loop
      vertex   1.174400e+002 1.534016e+002 6.100000e+001
      vertex   6.048999e+001 1.641516e+002 6.100000e+001
      vertex   6.048999e+001 1.426516e+002 6.100000e+001
    endloop
  endfacet
endsolid
