solid ascii
  facet normal 0.000000e+000 -1.000000e+000 0.000000e+000
    outer loop
      vertex   1.727400e+002 1.444516e+002 5.660000e+001
      vertex   1.724900e+002 1.444516e+002 5.660000e+001
      vertex   1.724900e+002 1.444516e+002 5.600000e+001
    endloop
  endfacet
  facet normal 0.000000e+000 1.000000e+000 0.000000e+000
    outer loop
      vertex   1.727400e+002 1.623516e+002 5.660000e+001
      vertex   1.724900e+002 1.623516e+002 5.600000e+001
      vertex   1.724900e+002 1.623516e+002 5.660000e+001
    endloop
  endfacet
  facet normal 0.000000e+000 -1.000000e+000 0.000000e+000
    outer loop
      vertex   1.724900e+002 1.444516e+002 5.660000e+001
      vertex   6.239000e+001 1.444516e+002 5.900000e+001
      vertex   1.724900e+002 1.444516e+002 5.600000e+001
    endloop
  endfacet
  facet normal 0.000000e+000 0.000000e+000 -1.000000e+000
    outer loop
      vertex   1.174400e+002 1.534016e+002 5.600000e+001
      vertex   6.239000e+001 1.444516e+002 5.600000e+001
      vertex   6.239000e+001 1.623516e+002 5.600000e+001
    endloop
  endfacet
  facet normal 0.000000e+000 1.000000e+000 -0.000000e+000
    outer loop
      vertex   1.724900e+002 1.623516e+002 5.660000e+001
      vertex   1.724900e+002 1.623516e+002 5.600000e+001
      vertex   6.239000e+001 1.623516e+002 5.900000e+001
    endloop
  endfacet
  facet normal 0.000000e+000 1.000000e+000 0.000000e+000
    outer loop
      vertex   1.724900e+002 1.623516e+002 5.600000e+001
      vertex   6.239000e+001 1.623516e+002 5.600000e+001
      vertex   6.239000e+001 1.623516e+002 5.660000e+001
    endloop
  endfacet
  facet normal -0.000000e+000 1.000000e+000 0.000000e+000
    outer loop
      vertex   1.724900e+002 1.623516e+002 5.600000e+001
      vertex   6.239000e+001 1.623516e+002 5.660000e+001
      vertex   6.239000e+001 1.623516e+002 5.900000e+001
    endloop
  endfacet
  facet normal 0.000000e+000 1.000000e+000 -0.000000e+000
    outer loop
      vertex   6.239000e+001 1.623516e+002 5.660000e+001
      vertex   6.239000e+001 1.623516e+002 5.600000e+001
      vertex   6.214000e+001 1.623516e+002 5.660000e+001
    endloop
  endfacet
  facet normal 9.230766e-001 0.000000e+000 -3.846162e-001
    outer loop
      vertex   1.726150e+002 1.534016e+002 5.630000e+001
      vertex   1.724900e+002 1.444516e+002 5.600000e+001
      vertex   1.724900e+002 1.623516e+002 5.600000e+001
    endloop
  endfacet
  facet normal 9.230766e-001 0.000000e+000 -3.846162e-001
    outer loop
      vertex   1.726150e+002 1.534016e+002 5.630000e+001
      vertex   1.724900e+002 1.623516e+002 5.600000e+001
      vertex   1.727400e+002 1.623516e+002 5.660000e+001
    endloop
  endfacet
  facet normal 0.000000e+000 -1.000000e+000 0.000000e+000
    outer loop
      vertex   1.724900e+002 1.444516e+002 5.600000e+001
      vertex   6.239000e+001 1.444516e+002 5.900000e+001
      vertex   6.239000e+001 1.444516e+002 5.660000e+001
    endloop
  endfacet
  facet normal 9.230766e-001 0.000000e+000 -3.846162e-001
    outer loop
      vertex   1.726150e+002 1.534016e+002 5.630000e+001
      vertex   1.727400e+002 1.444516e+002 5.660000e+001
      vertex   1.724900e+002 1.444516e+002 5.600000e+001
    endloop
  endfacet
  facet normal 0.000000e+000 -0.000000e+000 -1.000000e+000
    outer loop
      vertex   1.174400e+002 1.534016e+002 5.600000e+001
      vertex   1.724900e+002 1.623516e+002 5.600000e+001
      vertex   1.724900e+002 1.444516e+002 5.600000e+001
    endloop
  endfacet
  facet normal 0.000000e+000 0.000000e+000 -1.000000e+000
    outer loop
      vertex   1.174400e+002 1.534016e+002 5.600000e+001
      vertex   6.239000e+001 1.623516e+002 5.600000e+001
      vertex   1.724900e+002 1.623516e+002 5.600000e+001
    endloop
  endfacet
  facet normal 0.000000e+000 -1.000000e+000 0.000000e+000
    outer loop
      vertex   1.724900e+002 1.444516e+002 5.600000e+001
      vertex   6.239000e+001 1.444516e+002 5.660000e+001
      vertex   6.239000e+001 1.444516e+002 5.600000e+001
    endloop
  endfacet
  facet normal 0.000000e+000 0.000000e+000 -1.000000e+000
    outer loop
      vertex   1.174400e+002 1.534016e+002 5.600000e+001
      vertex   1.724900e+002 1.444516e+002 5.600000e+001
      vertex   6.239000e+001 1.444516e+002 5.600000e+001
    endloop
  endfacet
  facet normal -9.230766e-001 0.000000e+000 -3.846162e-001
    outer loop
      vertex   6.226500e+001 1.534016e+002 5.630000e+001
      vertex   6.214000e+001 1.623516e+002 5.660000e+001
      vertex   6.239000e+001 1.623516e+002 5.600000e+001
    endloop
  endfacet
  facet normal -9.230766e-001 -0.000000e+000 -3.846162e-001
    outer loop
      vertex   6.226500e+001 1.534016e+002 5.630000e+001
      vertex   6.239000e+001 1.623516e+002 5.600000e+001
      vertex   6.239000e+001 1.444516e+002 5.600000e+001
    endloop
  endfacet
  facet normal -9.230766e-001 0.000000e+000 -3.846162e-001
    outer loop
      vertex   6.226500e+001 1.534016e+002 5.630000e+001
      vertex   6.239000e+001 1.444516e+002 5.600000e+001
      vertex   6.214000e+001 1.444516e+002 5.660000e+001
    endloop
  endfacet
  facet normal 0.000000e+000 -1.000000e+000 0.000000e+000
    outer loop
      vertex   6.239000e+001 1.444516e+002 5.660000e+001
      vertex   6.214000e+001 1.444516e+002 5.660000e+001
      vertex   6.239000e+001 1.444516e+002 5.600000e+001
    endloop
  endfacet
  facet normal 9.230766e-001 0.000000e+000 -3.846162e-001
    outer loop
      vertex   1.726150e+002 1.534016e+002 5.630000e+001
      vertex   1.727400e+002 1.623516e+002 5.660000e+001
      vertex   1.727400e+002 1.444516e+002 5.660000e+001
    endloop
  endfacet
  facet normal -9.230766e-001 0.000000e+000 -3.846162e-001
    outer loop
      vertex   6.226500e+001 1.534016e+002 5.630000e+001
      vertex   6.214000e+001 1.444516e+002 5.660000e+001
      vertex   6.214000e+001 1.623516e+002 5.660000e+001
    endloop
  endfacet
  facet normal -1.000000e+000 0.000000e+000 0.000000e+000
    outer loop
      vertex   6.239000e+001 1.534016e+002 5.780000e+001
      vertex   6.239000e+001 1.623516e+002 5.660000e+001
      vertex   6.239000e+001 1.444516e+002 5.660000e+001
    endloop
  endfacet
  facet normal -1.000000e+000 0.000000e+000 -0.000000e+000
    outer loop
      vertex   6.239000e+001 1.534016e+002 5.780000e+001
      vertex   6.239000e+001 1.623516e+002 5.900000e+001
      vertex   6.239000e+001 1.623516e+002 5.660000e+001
    endloop
  endfacet
  facet normal 1.000000e+000 0.000000e+000 0.000000e+000
    outer loop
      vertex   1.724900e+002 1.534016e+002 5.780000e+001
      vertex   1.724900e+002 1.444516e+002 5.660000e+001
      vertex   1.724900e+002 1.623516e+002 5.660000e+001
    endloop
  endfacet
  facet normal 1.000000e+000 0.000000e+000 -0.000000e+000
    outer loop
      vertex   1.724900e+002 1.534016e+002 5.780000e+001
      vertex   1.724900e+002 1.623516e+002 5.660000e+001
      vertex   1.724900e+002 1.623516e+002 5.900000e+001
    endloop
  endfacet
  facet normal 0.000000e+000 1.000000e+000 -0.000000e+000
    outer loop
      vertex   1.724900e+002 1.623516e+002 5.900000e+001
      vertex   1.724900e+002 1.623516e+002 5.660000e+001
      vertex   6.239000e+001 1.623516e+002 5.900000e+001
    endloop
  endfacet
  facet normal 0.000000e+000 0.000000e+000 1.000000e+000
    outer loop
      vertex   1.726150e+002 1.534016e+002 5.660000e+001
      vertex   1.724900e+002 1.623516e+002 5.660000e+001
      vertex   1.724900e+002 1.444516e+002 5.660000e+001
    endloop
  endfacet
  facet normal 0.000000e+000 -0.000000e+000 1.000000e+000
    outer loop
      vertex   6.226500e+001 1.534016e+002 5.660000e+001
      vertex   6.239000e+001 1.444516e+002 5.660000e+001
      vertex   6.239000e+001 1.623516e+002 5.660000e+001
    endloop
  endfacet
  facet normal 0.000000e+000 0.000000e+000 1.000000e+000
    outer loop
      vertex   6.226500e+001 1.534016e+002 5.660000e+001
      vertex   6.239000e+001 1.623516e+002 5.660000e+001
      vertex   6.214000e+001 1.623516e+002 5.660000e+001
    endloop
  endfacet
  facet normal 0.000000e+000 0.000000e+000 1.000000e+000
    outer loop
      vertex   6.226500e+001 1.534016e+002 5.660000e+001
      vertex   6.214000e+001 1.623516e+002 5.660000e+001
      vertex   6.214000e+001 1.444516e+002 5.660000e+001
    endloop
  endfacet
  facet normal 0.000000e+000 0.000000e+000 1.000000e+000
    outer loop
      vertex   6.226500e+001 1.534016e+002 5.660000e+001
      vertex   6.214000e+001 1.444516e+002 5.660000e+001
      vertex   6.239000e+001 1.444516e+002 5.660000e+001
    endloop
  endfacet
  facet normal 0.000000e+000 -0.000000e+000 1.000000e+000
    outer loop
      vertex   1.726150e+002 1.534016e+002 5.660000e+001
      vertex   1.727400e+002 1.444516e+002 5.660000e+001
      vertex   1.727400e+002 1.623516e+002 5.660000e+001
    endloop
  endfacet
  facet normal 0.000000e+000 -1.000000e+000 0.000000e+000
    outer loop
      vertex   1.724900e+002 1.444516e+002 5.900000e+001
      vertex   6.239000e+001 1.444516e+002 5.900000e+001
      vertex   1.724900e+002 1.444516e+002 5.660000e+001
    endloop
  endfacet
  facet normal 0.000000e+000 0.000000e+000 1.000000e+000
    outer loop
      vertex   1.726150e+002 1.534016e+002 5.660000e+001
      vertex   1.724900e+002 1.444516e+002 5.660000e+001
      vertex   1.727400e+002 1.444516e+002 5.660000e+001
    endloop
  endfacet
  facet normal 0.000000e+000 0.000000e+000 1.000000e+000
    outer loop
      vertex   1.726150e+002 1.534016e+002 5.660000e+001
      vertex   1.727400e+002 1.623516e+002 5.660000e+001
      vertex   1.724900e+002 1.623516e+002 5.660000e+001
    endloop
  endfacet
  facet normal 1.000000e+000 0.000000e+000 0.000000e+000
    outer loop
      vertex   1.724900e+002 1.534016e+002 5.780000e+001
      vertex   1.724900e+002 1.444516e+002 5.900000e+001
      vertex   1.724900e+002 1.444516e+002 5.660000e+001
    endloop
  endfacet
  facet normal -1.000000e+000 0.000000e+000 0.000000e+000
    outer loop
      vertex   6.239000e+001 1.534016e+002 5.780000e+001
      vertex   6.239000e+001 1.444516e+002 5.660000e+001
      vertex   6.239000e+001 1.444516e+002 5.900000e+001
    endloop
  endfacet
  facet normal -1.000000e+000 0.000000e+000 0.000000e+000
    outer loop
      vertex   6.239000e+001 1.534016e+002 5.780000e+001
      vertex   6.239000e+001 1.444516e+002 5.900000e+001
      vertex   6.239000e+001 1.623516e+002 5.900000e+001
    endloop
  endfacet
  facet normal 1.000000e+000 0.000000e+000 0.000000e+000
    outer loop
      vertex   1.724900e+002 1.534016e+002 5.780000e+001
      vertex   1.724900e+002 1.623516e+002 5.900000e+001
      vertex   1.724900e+002 1.444516e+002 5.900000e+001
    endloop
  endfacet
  facet normal -7.071068e-001 -0.000000e+000 -7.071068e-001
    outer loop
      vertex   6.148999e+001 1.534016e+002 5.990000e+001
      vertex   6.239000e+001 1.623516e+002 5.900000e+001
      vertex   6.239000e+001 1.444516e+002 5.900000e+001
    endloop
  endfacet
  facet normal -7.071061e-001 1.369238e-007 -7.071074e-001
    outer loop
      vertex   6.148999e+001 1.534016e+002 5.990000e+001
      vertex   6.239000e+001 1.444516e+002 5.900000e+001
      vertex   6.058999e+001 1.426516e+002 6.080000e+001
    endloop
  endfacet
  facet normal -2.410536e-008 -7.071090e-001 -7.071046e-001
    outer loop
      vertex   1.174400e+002 1.435516e+002 5.990000e+001
      vertex   1.724900e+002 1.444516e+002 5.900000e+001
      vertex   1.742900e+002 1.426516e+002 6.080000e+001
    endloop
  endfacet
  facet normal 1.205271e-007 7.071061e-001 -7.071075e-001
    outer loop
      vertex   1.174400e+002 1.632516e+002 5.990000e+001
      vertex   6.239000e+001 1.623516e+002 5.900000e+001
      vertex   6.058999e+001 1.641516e+002 6.080000e+001
    endloop
  endfacet
  facet normal 0.000000e+000 -7.071098e-001 -7.071038e-001
    outer loop
      vertex   1.174400e+002 1.435516e+002 5.990000e+001
      vertex   6.239000e+001 1.444516e+002 5.900000e+001
      vertex   1.724900e+002 1.444516e+002 5.900000e+001
    endloop
  endfacet
  facet normal 2.410536e-008 -7.071090e-001 -7.071045e-001
    outer loop
      vertex   1.174400e+002 1.435516e+002 5.990000e+001
      vertex   6.058999e+001 1.426516e+002 6.080000e+001
      vertex   6.239000e+001 1.444516e+002 5.900000e+001
    endloop
  endfacet
  facet normal 0.000000e+000 7.071098e-001 -7.071038e-001
    outer loop
      vertex   1.174400e+002 1.632516e+002 5.990000e+001
      vertex   1.724900e+002 1.623516e+002 5.900000e+001
      vertex   6.239000e+001 1.623516e+002 5.900000e+001
    endloop
  endfacet
  facet normal -7.071061e-001 -1.369239e-007 -7.071075e-001
    outer loop
      vertex   6.148999e+001 1.534016e+002 5.990000e+001
      vertex   6.058999e+001 1.641516e+002 6.080000e+001
      vertex   6.239000e+001 1.623516e+002 5.900000e+001
    endloop
  endfacet
  facet normal 7.071038e-001 0.000000e+000 -7.071098e-001
    outer loop
      vertex   1.733900e+002 1.534016e+002 5.990000e+001
      vertex   1.724900e+002 1.444516e+002 5.900000e+001
      vertex   1.724900e+002 1.623516e+002 5.900000e+001
    endloop
  endfacet
  facet normal 7.071058e-001 4.107704e-007 -7.071077e-001
    outer loop
      vertex   1.733900e+002 1.534016e+002 5.990000e+001
      vertex   1.724900e+002 1.623516e+002 5.900000e+001
      vertex   1.742900e+002 1.641516e+002 6.080000e+001
    endloop
  endfacet
  facet normal -1.205271e-007 7.071061e-001 -7.071075e-001
    outer loop
      vertex   1.174400e+002 1.632516e+002 5.990000e+001
      vertex   1.742900e+002 1.641516e+002 6.080000e+001
      vertex   1.724900e+002 1.623516e+002 5.900000e+001
    endloop
  endfacet
  facet normal 7.071058e-001 -4.107701e-007 -7.071077e-001
    outer loop
      vertex   1.733900e+002 1.534016e+002 5.990000e+001
      vertex   1.742900e+002 1.426516e+002 6.080000e+001
      vertex   1.724900e+002 1.444516e+002 5.900000e+001
    endloop
  endfacet
  facet normal -7.071053e-001 0.000000e+000 -7.071083e-001
    outer loop
      vertex   6.148999e+001 1.534016e+002 5.990000e+001
      vertex   6.058999e+001 1.426516e+002 6.080000e+001
      vertex   6.058999e+001 1.641516e+002 6.080000e+001
    endloop
  endfacet
  facet normal 0.000000e+000 7.071022e-001 -7.071112e-001
    outer loop
      vertex   1.174400e+002 1.632516e+002 5.990000e+001
      vertex   6.058999e+001 1.641516e+002 6.080000e+001
      vertex   1.742900e+002 1.641516e+002 6.080000e+001
    endloop
  endfacet
  facet normal 7.071083e-001 0.000000e+000 -7.071053e-001
    outer loop
      vertex   1.733900e+002 1.534016e+002 5.990000e+001
      vertex   1.742900e+002 1.641516e+002 6.080000e+001
      vertex   1.742900e+002 1.426516e+002 6.080000e+001
    endloop
  endfacet
  facet normal -0.000000e+000 -7.071083e-001 -7.071053e-001
    outer loop
      vertex   1.174400e+002 1.435516e+002 5.990000e+001
      vertex   1.742900e+002 1.426516e+002 6.080000e+001
      vertex   6.058999e+001 1.426516e+002 6.080000e+001
    endloop
  endfacet
  facet normal 1.000000e+000 0.000000e+000 0.000000e+000
    outer loop
      vertex   1.742900e+002 1.534016e+002 6.090000e+001
      vertex   1.742900e+002 1.426516e+002 6.080000e+001
      vertex   1.742900e+002 1.641516e+002 6.080000e+001
    endloop
  endfacet
  facet normal 1.000000e+000 0.000000e+000 0.000000e+000
    outer loop
      vertex   1.742900e+002 1.534016e+002 6.090000e+001
      vertex   1.742900e+002 1.426516e+002 6.100000e+001
      vertex   1.742900e+002 1.426516e+002 6.080000e+001
    endloop
  endfacet
  facet normal -1.000000e+000 0.000000e+000 0.000000e+000
    outer loop
      vertex   6.058999e+001 1.534016e+002 6.090000e+001
      vertex   6.058999e+001 1.426516e+002 6.080000e+001
      vertex   6.058999e+001 1.426516e+002 6.100000e+001
    endloop
  endfacet
  facet normal 0.000000e+000 -1.000000e+000 0.000000e+000
    outer loop
      vertex   1.174400e+002 1.426516e+002 6.090000e+001
      vertex   1.742900e+002 1.426516e+002 6.080000e+001
      vertex   1.742900e+002 1.426516e+002 6.100000e+001
    endloop
  endfacet
  facet normal 0.000000e+000 1.000000e+000 0.000000e+000
    outer loop
      vertex   1.174400e+002 1.641516e+002 6.090000e+001
      vertex   6.058999e+001 1.641516e+002 6.080000e+001
      vertex   6.058999e+001 1.641516e+002 6.100000e+001
    endloop
  endfacet
  facet normal 0.000000e+000 -1.000000e+000 0.000000e+000
    outer loop
      vertex   1.174400e+002 1.426516e+002 6.090000e+001
      vertex   6.058999e+001 1.426516e+002 6.080000e+001
      vertex   1.742900e+002 1.426516e+002 6.080000e+001
    endloop
  endfacet
  facet normal 0.000000e+000 -1.000000e+000 0.000000e+000
    outer loop
      vertex   1.174400e+002 1.426516e+002 6.090000e+001
      vertex   6.058999e+001 1.426516e+002 6.100000e+001
      vertex   6.058999e+001 1.426516e+002 6.080000e+001
    endloop
  endfacet
  facet normal 0.000000e+000 1.000000e+000 0.000000e+000
    outer loop
      vertex   1.174400e+002 1.641516e+002 6.090000e+001
      vertex   1.742900e+002 1.641516e+002 6.100000e+001
      vertex   1.742900e+002 1.641516e+002 6.080000e+001
    endloop
  endfacet
  facet normal 0.000000e+000 1.000000e+000 0.000000e+000
    outer loop
      vertex   1.174400e+002 1.641516e+002 6.090000e+001
      vertex   1.742900e+002 1.641516e+002 6.080000e+001
      vertex   6.058999e+001 1.641516e+002 6.080000e+001
    endloop
  endfacet
  facet normal -1.000000e+000 0.000000e+000 -0.000000e+000
    outer loop
      vertex   6.058999e+001 1.534016e+002 6.090000e+001
      vertex   6.058999e+001 1.641516e+002 6.100000e+001
      vertex   6.058999e+001 1.641516e+002 6.080000e+001
    endloop
  endfacet
  facet normal -1.000000e+000 0.000000e+000 0.000000e+000
    outer loop
      vertex   6.058999e+001 1.534016e+002 6.090000e+001
      vertex   6.058999e+001 1.641516e+002 6.080000e+001
      vertex   6.058999e+001 1.426516e+002 6.080000e+001
    endloop
  endfacet
  facet normal 1.000000e+000 0.000000e+000 -0.000000e+000
    outer loop
      vertex   1.742900e+002 1.534016e+002 6.090000e+001
      vertex   1.742900e+002 1.641516e+002 6.080000e+001
      vertex   1.742900e+002 1.641516e+002 6.100000e+001
    endloop
  endfacet
  facet normal -0.000000e+000 1.000000e+000 0.000000e+000
    outer loop
      vertex   1.174400e+002 1.641516e+002 6.090000e+001
      vertex   6.058999e+001 1.641516e+002 6.100000e+001
      vertex   1.742900e+002 1.641516e+002 6.100000e+001
    endloop
  endfacet
  facet normal 1.000000e+000 0.000000e+000 0.000000e+000
    outer loop
      vertex   1.742900e+002 1.534016e+002 6.090000e+001
      vertex   1.742900e+002 1.641516e+002 6.100000e+001
      vertex   1.742900e+002 1.426516e+002 6.100000e+001
    endloop
  endfacet
  facet normal -1.000000e+000 0.000000e+000 0.000000e+000
    outer loop
      vertex   6.058999e+001 1.534016e+002 6.090000e+001
      vertex   6.058999e+001 1.426516e+002 6.100000e+001
      vertex   6.058999e+001 1.641516e+002 6.100000e+001
    endloop
  endfacet
  facet normal -0.000000e+000 -1.000000e+000 0.000000e+000
    outer loop
      vertex   1.174400e+002 1.426516e+002 6.090000e+001
      vertex   1.742900e+002 1.426516e+002 6.100000e+001
      vertex   6.058999e+001 1.426516e+002 6.100000e+001
    endloop
  endfacet
  facet normal 0.000000e+000 0.000000e+000 1.000000e+000
    outer loop
      vertex   1.174400e+002 1.534016e+002 6.100000e+001
      vertex   1.742900e+002 1.641516e+002 6.100000e+001
      vertex   6.058999e+001 1.641516e+002 6.100000e+001
    endloop
  endfacet
  facet normal 0.000000e+000 0.000000e+000 1.000000e+000
    outer loop
      vertex   1.174400e+002 1.534016e+002 6.100000e+001
      vertex   6.058999e+001 1.641516e+002 6.100000e+001
      vertex   6.058999e+001 1.426516e+002 6.100000e+001
    endloop
  endfacet
  facet normal 0.000000e+000 -0.000000e+000 1.000000e+000
    outer loop
      vertex   1.174400e+002 1.534016e+002 6.100000e+001
      vertex   1.742900e+002 1.426516e+002 6.100000e+001
      vertex   1.742900e+002 1.641516e+002 6.100000e+001
    endloop
  endfacet
  facet normal 0.000000e+000 0.000000e+000 1.000000e+000
    outer loop
      vertex   1.174400e+002 1.534016e+002 6.100000e+001
      vertex   6.058999e+001 1.426516e+002 6.100000e+001
      vertex   1.742900e+002 1.426516e+002 6.100000e+001
    endloop
  endfacet
endsolid
